<svg xmlns="http://www.w3.org/2000/svg" width="256" height="256" viewBox="0 0 100 100"><rect width="100" height="100" rx="20" fill="#ff9900"></rect><path fill="#000000" d="M32.92 80.34Q28.79 80.34 25.43 78.73Q22.07 77.13 20.14 74.01Q18.22 70.89 18.22 66.48L18.22 66.48L18.22 51.43L30.05 51.43L30.05 65.78Q30.05 67.39 30.71 68.34Q31.38 69.28 32.78 69.28L32.78 69.28Q34.11 69.28 34.77 68.41Q35.44 67.53 35.44 65.92L35.44 65.92L35.44 19.65L47.55 19.65L47.55 64.73Q47.55 69.42 45.69 72.96Q43.84 76.49 40.52 78.42Q37.19 80.34 32.92 80.34L32.92 80.34ZM64.14 79.78L52.17 79.78L52.17 19.65L64.14 19.65L64.14 41.14L69.81 41.14L69.81 19.65L81.78 19.65L81.78 79.78L69.81 79.78L69.81 52.48L64.14 52.48L64.14 79.78Z"></path></svg>